 http://www.imdb.com/title/tt0052357/

Source: Vertigo.1958.720p.BluRay.X264-AMIABLE Thanks!

Subs: Danish, Dutch, English, Finnish, Greek, Italian, Romanian, Spanish, Ukrainian.

Sample and Screens included.

General
Complete name                            : Vertigo-720p MP4 AAC x264 BRRip 1958-CC.mp4
Format                                   : MPEG-4
Format profile                           : Base Media
Codec ID                                 : isom
File size                                : 3.06 GiB
Duration                                 : 2h 8mn
Overall bit rate mode                    : Variable
Overall bit rate                         : 3 405 Kbps
Encoded date                             : UTC 2013-02-28 08:39:36

Video
ID                                       : 1
Format                                   : AVC
Format/Info                              : Advanced Video Codec
Format profile                           : High@L4.1
Format settings, CABAC                   : Yes
Format settings, ReFrames                : 5 frames
Codec ID                                 : avc1
Codec ID/Info                            : Advanced Video Coding
Duration                                 : 2h 8mn
Bit rate                                 : 3 093 Kbps
Maximum bit rate                         : 14.9 Mbps
Width                                    : 1 280 pixels
Height                                   : 696 pixels
Display aspect ratio                     : 1.85:1
Frame rate mode                          : Variable
Frame rate                               : 23.976 fps
Minimum frame rate                       : 15.873 fps
Maximum frame rate                       : 25.000 fps
Color space                              : YUV
Chroma subsampling                       : 4:2:0
Bit depth                                : 8 bits
Scan type                                : Progressive
Bits/(Pixel*Frame)                       : 0.145
Stream size                              : 2.76 GiB (90%)
Writing library                          : x264 core 112

Audio
ID                                       : 2
Format                                   : AAC
Format/Info                              : Advanced Audio Codec
Format profile                           : LC
Codec ID                                 : 40
Duration                                 : 2h 8mn
Bit rate mode                            : Variable
Bit rate                                 : 320 Kbps
Maximum bit rate                         : 558 Kbps
Channel(s)                               : 6 channels
Channel positions                        : Front: L C R, Side: L R, LFE
Sampling rate                            : 48.0 KHz
Compression mode                         : Lossy
Delay relative to video                  : 83ms
Stream size                              : 294 MiB (9%)
Language                                 : English

Enjoy...

Requested by mrmuvis

Coming soon: Tropa de Elite, The Red Baron, Willow and more..